<svg width="1200" height="945" viewBox="0 0 1200 945" fill="none" xmlns="http://www.w3.org/2000/svg">
<rect width="1200" height="945" rx="48" fill="#F5EADA"/>
<path d="M0 0H1200V945H0V0Z" fill="url(#grad)"/>
<path d="M150 606C308 408 446 411 584 532C724 655 888 626 1052 448V846H150V606Z" fill="#D9BD91" opacity="0.88"/>
<path d="M170 270C340 178 506 207 650 324C790 438 932 425 1080 310" stroke="#B98B4B" stroke-width="24" stroke-linecap="round" opacity="0.55"/>
<path d="M165 720C345 594 500 600 650 704C804 810 936 794 1060 682" stroke="white" stroke-width="20" stroke-linecap="round" opacity="0.65"/>
<circle cx="932" cy="190" r="102" fill="white" opacity="0.34"/>
<rect x="78" y="78" width="455" height="142" rx="34" fill="white" opacity="0.72"/>
<text x="116" y="140" fill="#1D1712" font-family="Arial, sans-serif" font-size="42" font-weight="700">Bialuna</text>
<text x="116" y="188" fill="#75685C" font-family="Arial, sans-serif" font-size="27">Koleksiyon görseli</text>
<defs><linearGradient id="grad" x1="0" y1="0" x2="1200" y2="945" gradientUnits="userSpaceOnUse"><stop stop-color="white" stop-opacity="0.56"/><stop offset="1" stop-color="#B98B4B" stop-opacity="0.16"/></linearGradient></defs>
</svg>